<mxfile host="app.diagrams.net" modified="2020-11-01T14:30:11.188Z" agent="5.0 (Windows NT 10.0; Win64; x64) AppleWebKit/537.36 (KHTML, like Gecko) Chrome/86.0.4240.111 Safari/537.36" etag="n0nnvsSHdBGJxAMX89Jc" version="13.8.5" type="github">
  <diagram id="C5RBs43oDa-KdzZeNtuy" name="Page-1">
    <mxGraphModel dx="3910" dy="2185" grid="1" gridSize="10" guides="1" tooltips="1" connect="1" arrows="1" fold="1" page="1" pageScale="1" pageWidth="1600" pageHeight="900" math="0" shadow="0">
      <root>
        <mxCell id="WIyWlLk6GJQsqaUBKTNV-0" />
        <mxCell id="WIyWlLk6GJQsqaUBKTNV-1" parent="WIyWlLk6GJQsqaUBKTNV-0" />
        <mxCell id="NPSRJjCiuasaxtM8R7SW-10" value="&lt;&lt;ReadDB&gt;&gt;" style="swimlane;fontStyle=0;align=center;verticalAlign=top;childLayout=stackLayout;horizontal=1;startSize=26;horizontalStack=0;resizeParent=1;resizeLast=0;collapsible=1;marginBottom=0;rounded=0;shadow=0;strokeWidth=1;" parent="WIyWlLk6GJQsqaUBKTNV-1" vertex="1">
          <mxGeometry x="100" y="321" width="160" height="90" as="geometry">
            <mxRectangle x="230" y="140" width="160" height="26" as="alternateBounds" />
          </mxGeometry>
        </mxCell>
        <mxCell id="NPSRJjCiuasaxtM8R7SW-12" value="" style="line;html=1;strokeWidth=1;align=left;verticalAlign=middle;spacingTop=-1;spacingLeft=3;spacingRight=3;rotatable=0;labelPosition=right;points=[];portConstraint=eastwest;" parent="NPSRJjCiuasaxtM8R7SW-10" vertex="1">
          <mxGeometry y="26" width="160" height="8" as="geometry" />
        </mxCell>
        <mxCell id="NPSRJjCiuasaxtM8R7SW-14" value="«interface»&lt;br&gt;&lt;b&gt;IDReader&lt;/b&gt;" style="html=1;" parent="WIyWlLk6GJQsqaUBKTNV-1" vertex="1">
          <mxGeometry x="300" y="488" width="110" height="50" as="geometry" />
        </mxCell>
        <mxCell id="NPSRJjCiuasaxtM8R7SW-16" value="" style="endArrow=block;endSize=16;endFill=0;html=1;entryX=0.5;entryY=1;entryDx=0;entryDy=0;exitX=0.5;exitY=0;exitDx=0;exitDy=0;" parent="WIyWlLk6GJQsqaUBKTNV-1" source="NPSRJjCiuasaxtM8R7SW-32" target="NPSRJjCiuasaxtM8R7SW-14" edge="1">
          <mxGeometry width="160" relative="1" as="geometry">
            <mxPoint x="40" y="641" as="sourcePoint" />
            <mxPoint x="-50" y="611" as="targetPoint" />
          </mxGeometry>
        </mxCell>
        <mxCell id="NPSRJjCiuasaxtM8R7SW-19" value="«interface»&lt;br&gt;&lt;b&gt;IDWriter&lt;/b&gt;" style="html=1;" parent="WIyWlLk6GJQsqaUBKTNV-1" vertex="1">
          <mxGeometry x="1080" y="488" width="110" height="50" as="geometry" />
        </mxCell>
        <mxCell id="NPSRJjCiuasaxtM8R7SW-20" value="" style="endArrow=block;endSize=16;endFill=0;html=1;entryX=0.5;entryY=1;entryDx=0;entryDy=0;exitX=0.5;exitY=0;exitDx=0;exitDy=0;" parent="WIyWlLk6GJQsqaUBKTNV-1" source="NPSRJjCiuasaxtM8R7SW-47" target="NPSRJjCiuasaxtM8R7SW-19" edge="1">
          <mxGeometry width="160" relative="1" as="geometry">
            <mxPoint x="850" y="622" as="sourcePoint" />
            <mxPoint x="660" y="520" as="targetPoint" />
          </mxGeometry>
        </mxCell>
        <mxCell id="NPSRJjCiuasaxtM8R7SW-23" value="&lt;&lt;WriteDB&gt;&gt;" style="swimlane;fontStyle=0;align=center;verticalAlign=top;childLayout=stackLayout;horizontal=1;startSize=26;horizontalStack=0;resizeParent=1;resizeLast=0;collapsible=1;marginBottom=0;rounded=0;shadow=0;strokeWidth=1;" parent="WIyWlLk6GJQsqaUBKTNV-1" vertex="1">
          <mxGeometry x="740" y="323" width="160" height="90" as="geometry">
            <mxRectangle x="230" y="140" width="160" height="26" as="alternateBounds" />
          </mxGeometry>
        </mxCell>
        <mxCell id="NPSRJjCiuasaxtM8R7SW-25" value="" style="line;html=1;strokeWidth=1;align=left;verticalAlign=middle;spacingTop=-1;spacingLeft=3;spacingRight=3;rotatable=0;labelPosition=right;points=[];portConstraint=eastwest;" parent="NPSRJjCiuasaxtM8R7SW-23" vertex="1">
          <mxGeometry y="26" width="160" height="8" as="geometry" />
        </mxCell>
        <mxCell id="NPSRJjCiuasaxtM8R7SW-27" value="" style="endArrow=block;endSize=16;endFill=0;html=1;entryX=0.5;entryY=1;entryDx=0;entryDy=0;exitX=0.5;exitY=0;exitDx=0;exitDy=0;" parent="WIyWlLk6GJQsqaUBKTNV-1" source="NPSRJjCiuasaxtM8R7SW-28" target="NPSRJjCiuasaxtM8R7SW-10" edge="1">
          <mxGeometry width="160" relative="1" as="geometry">
            <mxPoint x="280" y="456" as="sourcePoint" />
            <mxPoint x="180" y="431" as="targetPoint" />
          </mxGeometry>
        </mxCell>
        <mxCell id="NPSRJjCiuasaxtM8R7SW-28" value="&lt;&lt;ReadSQL&gt;&gt;" style="swimlane;fontStyle=0;align=center;verticalAlign=top;childLayout=stackLayout;horizontal=1;startSize=26;horizontalStack=0;resizeParent=1;resizeLast=0;collapsible=1;marginBottom=0;rounded=0;shadow=0;strokeWidth=1;" parent="WIyWlLk6GJQsqaUBKTNV-1" vertex="1">
          <mxGeometry x="100" y="461" width="160" height="90" as="geometry">
            <mxRectangle x="230" y="140" width="160" height="26" as="alternateBounds" />
          </mxGeometry>
        </mxCell>
        <mxCell id="NPSRJjCiuasaxtM8R7SW-29" value="dirSQL: stringSQL" style="text;align=left;verticalAlign=top;spacingLeft=4;spacingRight=4;overflow=hidden;rotatable=0;points=[[0,0.5],[1,0.5]];portConstraint=eastwest;" parent="NPSRJjCiuasaxtM8R7SW-28" vertex="1">
          <mxGeometry y="26" width="160" height="26" as="geometry" />
        </mxCell>
        <mxCell id="NPSRJjCiuasaxtM8R7SW-30" value="" style="line;html=1;strokeWidth=1;align=left;verticalAlign=middle;spacingTop=-1;spacingLeft=3;spacingRight=3;rotatable=0;labelPosition=right;points=[];portConstraint=eastwest;" parent="NPSRJjCiuasaxtM8R7SW-28" vertex="1">
          <mxGeometry y="52" width="160" height="8" as="geometry" />
        </mxCell>
        <mxCell id="NPSRJjCiuasaxtM8R7SW-31" value="get,set" style="text;align=left;verticalAlign=top;spacingLeft=4;spacingRight=4;overflow=hidden;rotatable=0;points=[[0,0.5],[1,0.5]];portConstraint=eastwest;" parent="NPSRJjCiuasaxtM8R7SW-28" vertex="1">
          <mxGeometry y="60" width="160" height="26" as="geometry" />
        </mxCell>
        <mxCell id="NPSRJjCiuasaxtM8R7SW-32" value="ValidMissionRepo" style="swimlane;fontStyle=0;align=center;verticalAlign=top;childLayout=stackLayout;horizontal=1;startSize=26;horizontalStack=0;resizeParent=1;resizeLast=0;collapsible=1;marginBottom=0;rounded=0;shadow=0;strokeWidth=1;" parent="WIyWlLk6GJQsqaUBKTNV-1" vertex="1">
          <mxGeometry x="290" y="611" width="160" height="90" as="geometry">
            <mxRectangle x="230" y="140" width="160" height="26" as="alternateBounds" />
          </mxGeometry>
        </mxCell>
        <mxCell id="NPSRJjCiuasaxtM8R7SW-34" value="" style="line;html=1;strokeWidth=1;align=left;verticalAlign=middle;spacingTop=-1;spacingLeft=3;spacingRight=3;rotatable=0;labelPosition=right;points=[];portConstraint=eastwest;" parent="NPSRJjCiuasaxtM8R7SW-32" vertex="1">
          <mxGeometry y="26" width="160" height="8" as="geometry" />
        </mxCell>
        <mxCell id="NPSRJjCiuasaxtM8R7SW-35" value="+read" style="text;align=left;verticalAlign=top;spacingLeft=4;spacingRight=4;overflow=hidden;rotatable=0;points=[[0,0.5],[1,0.5]];portConstraint=eastwest;" parent="NPSRJjCiuasaxtM8R7SW-32" vertex="1">
          <mxGeometry y="34" width="160" height="26" as="geometry" />
        </mxCell>
        <mxCell id="NPSRJjCiuasaxtM8R7SW-36" value="" style="endArrow=block;endSize=16;endFill=0;html=1;exitX=0.5;exitY=0;exitDx=0;exitDy=0;entryX=0.5;entryY=1;entryDx=0;entryDy=0;" parent="WIyWlLk6GJQsqaUBKTNV-1" source="NPSRJjCiuasaxtM8R7SW-32" target="NPSRJjCiuasaxtM8R7SW-28" edge="1">
          <mxGeometry width="160" relative="1" as="geometry">
            <mxPoint x="220" y="591" as="sourcePoint" />
            <mxPoint x="400" y="541" as="targetPoint" />
          </mxGeometry>
        </mxCell>
        <mxCell id="NPSRJjCiuasaxtM8R7SW-42" value="" style="endArrow=block;endSize=16;endFill=0;html=1;entryX=0.5;entryY=1;entryDx=0;entryDy=0;exitX=0.5;exitY=0;exitDx=0;exitDy=0;" parent="WIyWlLk6GJQsqaUBKTNV-1" source="NPSRJjCiuasaxtM8R7SW-43" edge="1">
          <mxGeometry width="160" relative="1" as="geometry">
            <mxPoint x="920" y="458" as="sourcePoint" />
            <mxPoint x="820" y="413" as="targetPoint" />
          </mxGeometry>
        </mxCell>
        <mxCell id="NPSRJjCiuasaxtM8R7SW-43" value="&lt;&lt;WriteSQL&gt;&gt;" style="swimlane;fontStyle=0;align=center;verticalAlign=top;childLayout=stackLayout;horizontal=1;startSize=26;horizontalStack=0;resizeParent=1;resizeLast=0;collapsible=1;marginBottom=0;rounded=0;shadow=0;strokeWidth=1;" parent="WIyWlLk6GJQsqaUBKTNV-1" vertex="1">
          <mxGeometry x="740" y="463" width="160" height="90" as="geometry">
            <mxRectangle x="230" y="140" width="160" height="26" as="alternateBounds" />
          </mxGeometry>
        </mxCell>
        <mxCell id="NPSRJjCiuasaxtM8R7SW-44" value="dirSQL: stringSQL" style="text;align=left;verticalAlign=top;spacingLeft=4;spacingRight=4;overflow=hidden;rotatable=0;points=[[0,0.5],[1,0.5]];portConstraint=eastwest;" parent="NPSRJjCiuasaxtM8R7SW-43" vertex="1">
          <mxGeometry y="26" width="160" height="26" as="geometry" />
        </mxCell>
        <mxCell id="NPSRJjCiuasaxtM8R7SW-45" value="" style="line;html=1;strokeWidth=1;align=left;verticalAlign=middle;spacingTop=-1;spacingLeft=3;spacingRight=3;rotatable=0;labelPosition=right;points=[];portConstraint=eastwest;" parent="NPSRJjCiuasaxtM8R7SW-43" vertex="1">
          <mxGeometry y="52" width="160" height="8" as="geometry" />
        </mxCell>
        <mxCell id="NPSRJjCiuasaxtM8R7SW-46" value="get,set" style="text;align=left;verticalAlign=top;spacingLeft=4;spacingRight=4;overflow=hidden;rotatable=0;points=[[0,0.5],[1,0.5]];portConstraint=eastwest;" parent="NPSRJjCiuasaxtM8R7SW-43" vertex="1">
          <mxGeometry y="60" width="160" height="26" as="geometry" />
        </mxCell>
        <mxCell id="NPSRJjCiuasaxtM8R7SW-47" value="AddMissionRepo" style="swimlane;fontStyle=0;align=center;verticalAlign=top;childLayout=stackLayout;horizontal=1;startSize=26;horizontalStack=0;resizeParent=1;resizeLast=0;collapsible=1;marginBottom=0;rounded=0;shadow=0;strokeWidth=1;" parent="WIyWlLk6GJQsqaUBKTNV-1" vertex="1">
          <mxGeometry x="740" y="613" width="160" height="90" as="geometry">
            <mxRectangle x="230" y="140" width="160" height="26" as="alternateBounds" />
          </mxGeometry>
        </mxCell>
        <mxCell id="NPSRJjCiuasaxtM8R7SW-48" value="" style="line;html=1;strokeWidth=1;align=left;verticalAlign=middle;spacingTop=-1;spacingLeft=3;spacingRight=3;rotatable=0;labelPosition=right;points=[];portConstraint=eastwest;" parent="NPSRJjCiuasaxtM8R7SW-47" vertex="1">
          <mxGeometry y="26" width="160" height="8" as="geometry" />
        </mxCell>
        <mxCell id="NPSRJjCiuasaxtM8R7SW-49" value="+write" style="text;align=left;verticalAlign=top;spacingLeft=4;spacingRight=4;overflow=hidden;rotatable=0;points=[[0,0.5],[1,0.5]];portConstraint=eastwest;" parent="NPSRJjCiuasaxtM8R7SW-47" vertex="1">
          <mxGeometry y="34" width="160" height="26" as="geometry" />
        </mxCell>
        <mxCell id="NPSRJjCiuasaxtM8R7SW-50" value="" style="endArrow=block;endSize=16;endFill=0;html=1;entryX=0.5;entryY=1;entryDx=0;entryDy=0;exitX=0.5;exitY=0;exitDx=0;exitDy=0;" parent="WIyWlLk6GJQsqaUBKTNV-1" target="NPSRJjCiuasaxtM8R7SW-43" edge="1" source="NPSRJjCiuasaxtM8R7SW-47">
          <mxGeometry width="160" relative="1" as="geometry">
            <mxPoint x="810" y="610" as="sourcePoint" />
            <mxPoint x="620" y="523" as="targetPoint" />
          </mxGeometry>
        </mxCell>
        <mxCell id="NPSRJjCiuasaxtM8R7SW-51" value="&lt;&lt;D&gt;&gt;" style="swimlane;fontStyle=0;align=center;verticalAlign=top;childLayout=stackLayout;horizontal=1;startSize=26;horizontalStack=0;resizeParent=1;resizeLast=0;collapsible=1;marginBottom=0;rounded=0;shadow=0;strokeWidth=1;" parent="WIyWlLk6GJQsqaUBKTNV-1" vertex="1">
          <mxGeometry x="375" y="198" width="160" height="90" as="geometry">
            <mxRectangle x="230" y="140" width="160" height="26" as="alternateBounds" />
          </mxGeometry>
        </mxCell>
        <mxCell id="NPSRJjCiuasaxtM8R7SW-52" value="dir: string" style="text;align=left;verticalAlign=top;spacingLeft=4;spacingRight=4;overflow=hidden;rotatable=0;points=[[0,0.5],[1,0.5]];portConstraint=eastwest;" parent="NPSRJjCiuasaxtM8R7SW-51" vertex="1">
          <mxGeometry y="26" width="160" height="26" as="geometry" />
        </mxCell>
        <mxCell id="NPSRJjCiuasaxtM8R7SW-53" value="" style="line;html=1;strokeWidth=1;align=left;verticalAlign=middle;spacingTop=-1;spacingLeft=3;spacingRight=3;rotatable=0;labelPosition=right;points=[];portConstraint=eastwest;" parent="NPSRJjCiuasaxtM8R7SW-51" vertex="1">
          <mxGeometry y="52" width="160" height="8" as="geometry" />
        </mxCell>
        <mxCell id="NPSRJjCiuasaxtM8R7SW-54" value="get,set" style="text;align=left;verticalAlign=top;spacingLeft=4;spacingRight=4;overflow=hidden;rotatable=0;points=[[0,0.5],[1,0.5]];portConstraint=eastwest;" parent="NPSRJjCiuasaxtM8R7SW-51" vertex="1">
          <mxGeometry y="60" width="160" height="26" as="geometry" />
        </mxCell>
        <mxCell id="NPSRJjCiuasaxtM8R7SW-55" value="" style="endArrow=block;endSize=16;endFill=0;html=1;exitX=0.5;exitY=0;exitDx=0;exitDy=0;entryX=0.5;entryY=1;entryDx=0;entryDy=0;" parent="WIyWlLk6GJQsqaUBKTNV-1" source="NPSRJjCiuasaxtM8R7SW-10" target="NPSRJjCiuasaxtM8R7SW-51" edge="1">
          <mxGeometry width="160" relative="1" as="geometry">
            <mxPoint x="475" y="328" as="sourcePoint" />
            <mxPoint x="455" y="278" as="targetPoint" />
          </mxGeometry>
        </mxCell>
        <mxCell id="NPSRJjCiuasaxtM8R7SW-56" value="" style="endArrow=block;endSize=16;endFill=0;html=1;exitX=0.5;exitY=0;exitDx=0;exitDy=0;entryX=0.491;entryY=1.121;entryDx=0;entryDy=0;entryPerimeter=0;" parent="WIyWlLk6GJQsqaUBKTNV-1" source="NPSRJjCiuasaxtM8R7SW-23" target="NPSRJjCiuasaxtM8R7SW-54" edge="1">
          <mxGeometry width="160" relative="1" as="geometry">
            <mxPoint x="245" y="331" as="sourcePoint" />
            <mxPoint x="465" y="268" as="targetPoint" />
          </mxGeometry>
        </mxCell>
        <mxCell id="NPSRJjCiuasaxtM8R7SW-57" value="EraseMissionRepo" style="swimlane;fontStyle=0;align=center;verticalAlign=top;childLayout=stackLayout;horizontal=1;startSize=26;horizontalStack=0;resizeParent=1;resizeLast=0;collapsible=1;marginBottom=0;rounded=0;shadow=0;strokeWidth=1;" parent="WIyWlLk6GJQsqaUBKTNV-1" vertex="1">
          <mxGeometry x="935" y="613" width="160" height="90" as="geometry">
            <mxRectangle x="230" y="140" width="160" height="26" as="alternateBounds" />
          </mxGeometry>
        </mxCell>
        <mxCell id="NPSRJjCiuasaxtM8R7SW-58" value="" style="line;html=1;strokeWidth=1;align=left;verticalAlign=middle;spacingTop=-1;spacingLeft=3;spacingRight=3;rotatable=0;labelPosition=right;points=[];portConstraint=eastwest;" parent="NPSRJjCiuasaxtM8R7SW-57" vertex="1">
          <mxGeometry y="26" width="160" height="8" as="geometry" />
        </mxCell>
        <mxCell id="NPSRJjCiuasaxtM8R7SW-59" value="+write" style="text;align=left;verticalAlign=top;spacingLeft=4;spacingRight=4;overflow=hidden;rotatable=0;points=[[0,0.5],[1,0.5]];portConstraint=eastwest;" parent="NPSRJjCiuasaxtM8R7SW-57" vertex="1">
          <mxGeometry y="34" width="160" height="26" as="geometry" />
        </mxCell>
        <mxCell id="NPSRJjCiuasaxtM8R7SW-60" value="" style="endArrow=block;endSize=16;endFill=0;html=1;entryX=0.5;entryY=1;entryDx=0;entryDy=0;exitX=0.5;exitY=0;exitDx=0;exitDy=0;" parent="WIyWlLk6GJQsqaUBKTNV-1" source="NPSRJjCiuasaxtM8R7SW-57" target="NPSRJjCiuasaxtM8R7SW-43" edge="1">
          <mxGeometry width="160" relative="1" as="geometry">
            <mxPoint x="940" y="603" as="sourcePoint" />
            <mxPoint x="940" y="530" as="targetPoint" />
          </mxGeometry>
        </mxCell>
        <mxCell id="NPSRJjCiuasaxtM8R7SW-69" value="&lt;&lt;Presentention&gt;&gt;" style="swimlane;fontStyle=0;align=center;verticalAlign=top;childLayout=stackLayout;horizontal=1;startSize=26;horizontalStack=0;resizeParent=1;resizeLast=0;collapsible=1;marginBottom=0;rounded=0;shadow=0;strokeWidth=1;" parent="WIyWlLk6GJQsqaUBKTNV-1" vertex="1">
          <mxGeometry x="230" y="1040" width="160" height="90" as="geometry">
            <mxRectangle x="230" y="140" width="160" height="26" as="alternateBounds" />
          </mxGeometry>
        </mxCell>
        <mxCell id="NPSRJjCiuasaxtM8R7SW-70" value="dir: string" style="text;align=left;verticalAlign=top;spacingLeft=4;spacingRight=4;overflow=hidden;rotatable=0;points=[[0,0.5],[1,0.5]];portConstraint=eastwest;" parent="NPSRJjCiuasaxtM8R7SW-69" vertex="1">
          <mxGeometry y="26" width="160" height="26" as="geometry" />
        </mxCell>
        <mxCell id="NPSRJjCiuasaxtM8R7SW-71" value="" style="line;html=1;strokeWidth=1;align=left;verticalAlign=middle;spacingTop=-1;spacingLeft=3;spacingRight=3;rotatable=0;labelPosition=right;points=[];portConstraint=eastwest;" parent="NPSRJjCiuasaxtM8R7SW-69" vertex="1">
          <mxGeometry y="52" width="160" height="8" as="geometry" />
        </mxCell>
        <mxCell id="NPSRJjCiuasaxtM8R7SW-72" value="get,set" style="text;align=left;verticalAlign=top;spacingLeft=4;spacingRight=4;overflow=hidden;rotatable=0;points=[[0,0.5],[1,0.5]];portConstraint=eastwest;" parent="NPSRJjCiuasaxtM8R7SW-69" vertex="1">
          <mxGeometry y="60" width="160" height="26" as="geometry" />
        </mxCell>
        <mxCell id="NPSRJjCiuasaxtM8R7SW-73" value="" style="endArrow=block;endSize=16;endFill=0;html=1;entryX=0.5;entryY=1;entryDx=0;entryDy=0;" parent="WIyWlLk6GJQsqaUBKTNV-1" target="NPSRJjCiuasaxtM8R7SW-69" edge="1">
          <mxGeometry width="160" relative="1" as="geometry">
            <mxPoint x="310" y="1190" as="sourcePoint" />
            <mxPoint x="310" y="1120" as="targetPoint" />
          </mxGeometry>
        </mxCell>
        <mxCell id="NPSRJjCiuasaxtM8R7SW-75" value="&lt;&lt;BL&gt;&gt;" style="swimlane;fontStyle=0;align=center;verticalAlign=top;childLayout=stackLayout;horizontal=1;startSize=26;horizontalStack=0;resizeParent=1;resizeLast=0;collapsible=1;marginBottom=0;rounded=0;shadow=0;strokeWidth=1;" parent="WIyWlLk6GJQsqaUBKTNV-1" vertex="1">
          <mxGeometry x="1780" y="300" width="160" height="90" as="geometry">
            <mxRectangle x="230" y="140" width="160" height="26" as="alternateBounds" />
          </mxGeometry>
        </mxCell>
        <mxCell id="NPSRJjCiuasaxtM8R7SW-76" value="dirD: string" style="text;align=left;verticalAlign=top;spacingLeft=4;spacingRight=4;overflow=hidden;rotatable=0;points=[[0,0.5],[1,0.5]];portConstraint=eastwest;" parent="NPSRJjCiuasaxtM8R7SW-75" vertex="1">
          <mxGeometry y="26" width="160" height="26" as="geometry" />
        </mxCell>
        <mxCell id="NPSRJjCiuasaxtM8R7SW-77" value="" style="line;html=1;strokeWidth=1;align=left;verticalAlign=middle;spacingTop=-1;spacingLeft=3;spacingRight=3;rotatable=0;labelPosition=right;points=[];portConstraint=eastwest;" parent="NPSRJjCiuasaxtM8R7SW-75" vertex="1">
          <mxGeometry y="52" width="160" height="8" as="geometry" />
        </mxCell>
        <mxCell id="NPSRJjCiuasaxtM8R7SW-78" value="get,set" style="text;align=left;verticalAlign=top;spacingLeft=4;spacingRight=4;overflow=hidden;rotatable=0;points=[[0,0.5],[1,0.5]];portConstraint=eastwest;" parent="NPSRJjCiuasaxtM8R7SW-75" vertex="1">
          <mxGeometry y="60" width="160" height="26" as="geometry" />
        </mxCell>
        <mxCell id="NPSRJjCiuasaxtM8R7SW-85" value="AddMissionService" style="swimlane;fontStyle=0;align=center;verticalAlign=top;childLayout=stackLayout;horizontal=1;startSize=26;horizontalStack=0;resizeParent=1;resizeLast=0;collapsible=1;marginBottom=0;rounded=0;shadow=0;strokeWidth=1;" parent="WIyWlLk6GJQsqaUBKTNV-1" vertex="1">
          <mxGeometry x="2000" y="456.5" width="160" height="100" as="geometry">
            <mxRectangle x="230" y="140" width="160" height="26" as="alternateBounds" />
          </mxGeometry>
        </mxCell>
        <mxCell id="NPSRJjCiuasaxtM8R7SW-87" value="" style="line;html=1;strokeWidth=1;align=left;verticalAlign=middle;spacingTop=-1;spacingLeft=3;spacingRight=3;rotatable=0;labelPosition=right;points=[];portConstraint=eastwest;" parent="NPSRJjCiuasaxtM8R7SW-85" vertex="1">
          <mxGeometry y="26" width="160" height="8" as="geometry" />
        </mxCell>
        <mxCell id="NPSRJjCiuasaxtM8R7SW-88" value="+addMission" style="text;align=left;verticalAlign=top;spacingLeft=4;spacingRight=4;overflow=hidden;rotatable=0;points=[[0,0.5],[1,0.5]];portConstraint=eastwest;" parent="NPSRJjCiuasaxtM8R7SW-85" vertex="1">
          <mxGeometry y="34" width="160" height="40" as="geometry" />
        </mxCell>
        <mxCell id="NPSRJjCiuasaxtM8R7SW-89" value="" style="endArrow=block;endSize=16;endFill=0;html=1;exitX=0.5;exitY=0;exitDx=0;exitDy=0;entryX=0.5;entryY=1;entryDx=0;entryDy=0;" parent="WIyWlLk6GJQsqaUBKTNV-1" source="NPSRJjCiuasaxtM8R7SW-85" target="NPSRJjCiuasaxtM8R7SW-75" edge="1">
          <mxGeometry width="160" relative="1" as="geometry">
            <mxPoint x="2541.44" y="613.85" as="sourcePoint" />
            <mxPoint x="2230" y="370" as="targetPoint" />
          </mxGeometry>
        </mxCell>
        <mxCell id="NPSRJjCiuasaxtM8R7SW-91" value="«interface»&lt;br&gt;&lt;b&gt;IMissionAdder&lt;/b&gt;" style="html=1;" parent="WIyWlLk6GJQsqaUBKTNV-1" vertex="1">
          <mxGeometry x="2010" y="333.5" width="140" height="50" as="geometry" />
        </mxCell>
        <mxCell id="NPSRJjCiuasaxtM8R7SW-92" value="" style="endArrow=block;endSize=16;endFill=0;html=1;entryX=0.5;entryY=1;entryDx=0;entryDy=0;exitX=0.5;exitY=0;exitDx=0;exitDy=0;" parent="WIyWlLk6GJQsqaUBKTNV-1" source="NPSRJjCiuasaxtM8R7SW-85" target="NPSRJjCiuasaxtM8R7SW-91" edge="1">
          <mxGeometry width="160" relative="1" as="geometry">
            <mxPoint x="2080" y="473.5" as="sourcePoint" />
            <mxPoint x="1880" y="413.5" as="targetPoint" />
          </mxGeometry>
        </mxCell>
        <mxCell id="NPSRJjCiuasaxtM8R7SW-93" value="CommandLine" style="swimlane;fontStyle=0;align=center;verticalAlign=top;childLayout=stackLayout;horizontal=1;startSize=26;horizontalStack=0;resizeParent=1;resizeLast=0;collapsible=1;marginBottom=0;rounded=0;shadow=0;strokeWidth=1;" parent="WIyWlLk6GJQsqaUBKTNV-1" vertex="1">
          <mxGeometry x="230" y="1190" width="160" height="100" as="geometry">
            <mxRectangle x="230" y="140" width="160" height="26" as="alternateBounds" />
          </mxGeometry>
        </mxCell>
        <mxCell id="NPSRJjCiuasaxtM8R7SW-94" value="dirCL: string" style="text;align=left;verticalAlign=top;spacingLeft=4;spacingRight=4;overflow=hidden;rotatable=0;points=[[0,0.5],[1,0.5]];portConstraint=eastwest;" parent="NPSRJjCiuasaxtM8R7SW-93" vertex="1">
          <mxGeometry y="26" width="160" height="26" as="geometry" />
        </mxCell>
        <mxCell id="NPSRJjCiuasaxtM8R7SW-95" value="" style="line;html=1;strokeWidth=1;align=left;verticalAlign=middle;spacingTop=-1;spacingLeft=3;spacingRight=3;rotatable=0;labelPosition=right;points=[];portConstraint=eastwest;" parent="NPSRJjCiuasaxtM8R7SW-93" vertex="1">
          <mxGeometry y="52" width="160" height="8" as="geometry" />
        </mxCell>
        <mxCell id="NPSRJjCiuasaxtM8R7SW-96" value="get,set&#xa;+ readLine" style="text;align=left;verticalAlign=top;spacingLeft=4;spacingRight=4;overflow=hidden;rotatable=0;points=[[0,0.5],[1,0.5]];portConstraint=eastwest;" parent="NPSRJjCiuasaxtM8R7SW-93" vertex="1">
          <mxGeometry y="60" width="160" height="40" as="geometry" />
        </mxCell>
        <mxCell id="NPSRJjCiuasaxtM8R7SW-112" value="EraseMissionService" style="swimlane;fontStyle=0;align=center;verticalAlign=top;childLayout=stackLayout;horizontal=1;startSize=26;horizontalStack=0;resizeParent=1;resizeLast=0;collapsible=1;marginBottom=0;rounded=0;shadow=0;strokeWidth=1;" parent="WIyWlLk6GJQsqaUBKTNV-1" vertex="1">
          <mxGeometry x="2210" y="456.5" width="160" height="100" as="geometry">
            <mxRectangle x="230" y="140" width="160" height="26" as="alternateBounds" />
          </mxGeometry>
        </mxCell>
        <mxCell id="NPSRJjCiuasaxtM8R7SW-114" value="" style="line;html=1;strokeWidth=1;align=left;verticalAlign=middle;spacingTop=-1;spacingLeft=3;spacingRight=3;rotatable=0;labelPosition=right;points=[];portConstraint=eastwest;" parent="NPSRJjCiuasaxtM8R7SW-112" vertex="1">
          <mxGeometry y="26" width="160" height="8" as="geometry" />
        </mxCell>
        <mxCell id="NPSRJjCiuasaxtM8R7SW-115" value="+eraseMission" style="text;align=left;verticalAlign=top;spacingLeft=4;spacingRight=4;overflow=hidden;rotatable=0;points=[[0,0.5],[1,0.5]];portConstraint=eastwest;" parent="NPSRJjCiuasaxtM8R7SW-112" vertex="1">
          <mxGeometry y="34" width="160" height="40" as="geometry" />
        </mxCell>
        <mxCell id="NPSRJjCiuasaxtM8R7SW-116" value="«interface»&lt;br&gt;&lt;b&gt;IMissionEraser&lt;/b&gt;" style="html=1;" parent="WIyWlLk6GJQsqaUBKTNV-1" vertex="1">
          <mxGeometry x="2220" y="333.5" width="140" height="50" as="geometry" />
        </mxCell>
        <mxCell id="NPSRJjCiuasaxtM8R7SW-117" value="" style="endArrow=block;endSize=16;endFill=0;html=1;entryX=0.5;entryY=1;entryDx=0;entryDy=0;exitX=0.5;exitY=0;exitDx=0;exitDy=0;" parent="WIyWlLk6GJQsqaUBKTNV-1" source="NPSRJjCiuasaxtM8R7SW-112" target="NPSRJjCiuasaxtM8R7SW-116" edge="1">
          <mxGeometry width="160" relative="1" as="geometry">
            <mxPoint x="2290" y="473.5" as="sourcePoint" />
            <mxPoint x="2090" y="413.5" as="targetPoint" />
          </mxGeometry>
        </mxCell>
        <mxCell id="NPSRJjCiuasaxtM8R7SW-118" value="" style="endArrow=block;endSize=16;endFill=0;html=1;exitX=0.5;exitY=0;exitDx=0;exitDy=0;" parent="WIyWlLk6GJQsqaUBKTNV-1" source="NPSRJjCiuasaxtM8R7SW-112" edge="1">
          <mxGeometry width="160" relative="1" as="geometry">
            <mxPoint x="2080" y="453" as="sourcePoint" />
            <mxPoint x="1865" y="390" as="targetPoint" />
          </mxGeometry>
        </mxCell>
        <mxCell id="NPSRJjCiuasaxtM8R7SW-143" value="" style="endArrow=block;endSize=16;endFill=0;html=1;exitX=0.5;exitY=0;exitDx=0;exitDy=0;entryX=0.5;entryY=1;entryDx=0;entryDy=0;" parent="WIyWlLk6GJQsqaUBKTNV-1" source="NPSRJjCiuasaxtM8R7SW-57" target="NPSRJjCiuasaxtM8R7SW-19" edge="1">
          <mxGeometry width="160" relative="1" as="geometry">
            <mxPoint x="1015" y="613" as="sourcePoint" />
            <mxPoint x="990" y="538" as="targetPoint" />
          </mxGeometry>
        </mxCell>
        <mxCell id="NPSRJjCiuasaxtM8R7SW-144" value="EndMissionService" style="swimlane;fontStyle=0;align=center;verticalAlign=top;childLayout=stackLayout;horizontal=1;startSize=26;horizontalStack=0;resizeParent=1;resizeLast=0;collapsible=1;marginBottom=0;rounded=0;shadow=0;strokeWidth=1;" parent="WIyWlLk6GJQsqaUBKTNV-1" vertex="1">
          <mxGeometry x="2410" y="456.5" width="160" height="100" as="geometry">
            <mxRectangle x="230" y="140" width="160" height="26" as="alternateBounds" />
          </mxGeometry>
        </mxCell>
        <mxCell id="NPSRJjCiuasaxtM8R7SW-146" value="" style="line;html=1;strokeWidth=1;align=left;verticalAlign=middle;spacingTop=-1;spacingLeft=3;spacingRight=3;rotatable=0;labelPosition=right;points=[];portConstraint=eastwest;" parent="NPSRJjCiuasaxtM8R7SW-144" vertex="1">
          <mxGeometry y="26" width="160" height="8" as="geometry" />
        </mxCell>
        <mxCell id="NPSRJjCiuasaxtM8R7SW-147" value="+ updateMission" style="text;align=left;verticalAlign=top;spacingLeft=4;spacingRight=4;overflow=hidden;rotatable=0;points=[[0,0.5],[1,0.5]];portConstraint=eastwest;" parent="NPSRJjCiuasaxtM8R7SW-144" vertex="1">
          <mxGeometry y="34" width="160" height="40" as="geometry" />
        </mxCell>
        <mxCell id="NPSRJjCiuasaxtM8R7SW-148" value="«interface»&lt;br&gt;&lt;b&gt;IMissionUpdater&lt;/b&gt;" style="html=1;" parent="WIyWlLk6GJQsqaUBKTNV-1" vertex="1">
          <mxGeometry x="2420" y="333.5" width="140" height="50" as="geometry" />
        </mxCell>
        <mxCell id="NPSRJjCiuasaxtM8R7SW-149" value="" style="endArrow=block;endSize=16;endFill=0;html=1;entryX=0.5;entryY=1;entryDx=0;entryDy=0;exitX=0.5;exitY=0;exitDx=0;exitDy=0;" parent="WIyWlLk6GJQsqaUBKTNV-1" source="NPSRJjCiuasaxtM8R7SW-144" target="NPSRJjCiuasaxtM8R7SW-148" edge="1">
          <mxGeometry width="160" relative="1" as="geometry">
            <mxPoint x="2490" y="473.5" as="sourcePoint" />
            <mxPoint x="2290" y="413.5" as="targetPoint" />
          </mxGeometry>
        </mxCell>
        <mxCell id="NPSRJjCiuasaxtM8R7SW-150" value="" style="endArrow=block;endSize=16;endFill=0;html=1;exitX=0.5;exitY=0;exitDx=0;exitDy=0;" parent="WIyWlLk6GJQsqaUBKTNV-1" source="NPSRJjCiuasaxtM8R7SW-144" edge="1">
          <mxGeometry width="160" relative="1" as="geometry">
            <mxPoint x="2290" y="453" as="sourcePoint" />
            <mxPoint x="1865" y="390" as="targetPoint" />
          </mxGeometry>
        </mxCell>
        <mxCell id="NPSRJjCiuasaxtM8R7SW-151" value="EndMissionRepo" style="swimlane;fontStyle=0;align=center;verticalAlign=top;childLayout=stackLayout;horizontal=1;startSize=26;horizontalStack=0;resizeParent=1;resizeLast=0;collapsible=1;marginBottom=0;rounded=0;shadow=0;strokeWidth=1;" parent="WIyWlLk6GJQsqaUBKTNV-1" vertex="1">
          <mxGeometry x="1140" y="613" width="160" height="90" as="geometry">
            <mxRectangle x="230" y="140" width="160" height="26" as="alternateBounds" />
          </mxGeometry>
        </mxCell>
        <mxCell id="NPSRJjCiuasaxtM8R7SW-152" value="" style="line;html=1;strokeWidth=1;align=left;verticalAlign=middle;spacingTop=-1;spacingLeft=3;spacingRight=3;rotatable=0;labelPosition=right;points=[];portConstraint=eastwest;" parent="NPSRJjCiuasaxtM8R7SW-151" vertex="1">
          <mxGeometry y="26" width="160" height="8" as="geometry" />
        </mxCell>
        <mxCell id="NPSRJjCiuasaxtM8R7SW-153" value="+write" style="text;align=left;verticalAlign=top;spacingLeft=4;spacingRight=4;overflow=hidden;rotatable=0;points=[[0,0.5],[1,0.5]];portConstraint=eastwest;" parent="NPSRJjCiuasaxtM8R7SW-151" vertex="1">
          <mxGeometry y="34" width="160" height="26" as="geometry" />
        </mxCell>
        <mxCell id="NPSRJjCiuasaxtM8R7SW-154" value="" style="endArrow=block;endSize=16;endFill=0;html=1;exitX=0.5;exitY=0;exitDx=0;exitDy=0;" parent="WIyWlLk6GJQsqaUBKTNV-1" source="NPSRJjCiuasaxtM8R7SW-151" edge="1">
          <mxGeometry width="160" relative="1" as="geometry">
            <mxPoint x="1145" y="603" as="sourcePoint" />
            <mxPoint x="825" y="553" as="targetPoint" />
          </mxGeometry>
        </mxCell>
        <mxCell id="NPSRJjCiuasaxtM8R7SW-156" value="" style="endArrow=block;endSize=16;endFill=0;html=1;entryX=0.5;entryY=1;entryDx=0;entryDy=0;exitX=0.5;exitY=0;exitDx=0;exitDy=0;" parent="WIyWlLk6GJQsqaUBKTNV-1" source="NPSRJjCiuasaxtM8R7SW-151" target="NPSRJjCiuasaxtM8R7SW-19" edge="1">
          <mxGeometry width="160" relative="1" as="geometry">
            <mxPoint x="1220" y="613" as="sourcePoint" />
            <mxPoint x="1210" y="540" as="targetPoint" />
          </mxGeometry>
        </mxCell>
        <mxCell id="NPSRJjCiuasaxtM8R7SW-157" value="GetAllMissionService" style="swimlane;fontStyle=0;align=center;verticalAlign=top;childLayout=stackLayout;horizontal=1;startSize=26;horizontalStack=0;resizeParent=1;resizeLast=0;collapsible=1;marginBottom=0;rounded=0;shadow=0;strokeWidth=1;" parent="WIyWlLk6GJQsqaUBKTNV-1" vertex="1">
          <mxGeometry x="2620" y="456.5" width="160" height="100" as="geometry">
            <mxRectangle x="230" y="140" width="160" height="26" as="alternateBounds" />
          </mxGeometry>
        </mxCell>
        <mxCell id="NPSRJjCiuasaxtM8R7SW-159" value="" style="line;html=1;strokeWidth=1;align=left;verticalAlign=middle;spacingTop=-1;spacingLeft=3;spacingRight=3;rotatable=0;labelPosition=right;points=[];portConstraint=eastwest;" parent="NPSRJjCiuasaxtM8R7SW-157" vertex="1">
          <mxGeometry y="26" width="160" height="8" as="geometry" />
        </mxCell>
        <mxCell id="NPSRJjCiuasaxtM8R7SW-160" value="+getMission" style="text;align=left;verticalAlign=top;spacingLeft=4;spacingRight=4;overflow=hidden;rotatable=0;points=[[0,0.5],[1,0.5]];portConstraint=eastwest;" parent="NPSRJjCiuasaxtM8R7SW-157" vertex="1">
          <mxGeometry y="34" width="160" height="26" as="geometry" />
        </mxCell>
        <mxCell id="NPSRJjCiuasaxtM8R7SW-161" value="«interface»&lt;br&gt;&lt;b&gt;IMissionGet&lt;/b&gt;" style="html=1;" parent="WIyWlLk6GJQsqaUBKTNV-1" vertex="1">
          <mxGeometry x="2630" y="333.5" width="140" height="50" as="geometry" />
        </mxCell>
        <mxCell id="NPSRJjCiuasaxtM8R7SW-162" value="" style="endArrow=block;endSize=16;endFill=0;html=1;entryX=0.5;entryY=1;entryDx=0;entryDy=0;exitX=0.5;exitY=0;exitDx=0;exitDy=0;" parent="WIyWlLk6GJQsqaUBKTNV-1" source="NPSRJjCiuasaxtM8R7SW-157" target="NPSRJjCiuasaxtM8R7SW-161" edge="1">
          <mxGeometry width="160" relative="1" as="geometry">
            <mxPoint x="2700" y="470.5" as="sourcePoint" />
            <mxPoint x="2500" y="410.5" as="targetPoint" />
          </mxGeometry>
        </mxCell>
        <mxCell id="NPSRJjCiuasaxtM8R7SW-163" value="" style="endArrow=block;endSize=16;endFill=0;html=1;exitX=0.5;exitY=0;exitDx=0;exitDy=0;" parent="WIyWlLk6GJQsqaUBKTNV-1" source="NPSRJjCiuasaxtM8R7SW-157" edge="1">
          <mxGeometry width="160" relative="1" as="geometry">
            <mxPoint x="2515" y="453" as="sourcePoint" />
            <mxPoint x="1865" y="390" as="targetPoint" />
          </mxGeometry>
        </mxCell>
        <mxCell id="NPSRJjCiuasaxtM8R7SW-165" value="" style="endArrow=block;endSize=16;endFill=0;html=1;entryX=0.5;entryY=1;entryDx=0;entryDy=0;exitX=0.5;exitY=0;exitDx=0;exitDy=0;" parent="WIyWlLk6GJQsqaUBKTNV-1" source="NPSRJjCiuasaxtM8R7SW-166" target="NPSRJjCiuasaxtM8R7SW-14" edge="1">
          <mxGeometry width="160" relative="1" as="geometry">
            <mxPoint x="225" y="641" as="sourcePoint" />
            <mxPoint x="540" y="538" as="targetPoint" />
          </mxGeometry>
        </mxCell>
        <mxCell id="NPSRJjCiuasaxtM8R7SW-166" value="ReadAllMissionRepo" style="swimlane;fontStyle=0;align=center;verticalAlign=top;childLayout=stackLayout;horizontal=1;startSize=26;horizontalStack=0;resizeParent=1;resizeLast=0;collapsible=1;marginBottom=0;rounded=0;shadow=0;strokeWidth=1;" parent="WIyWlLk6GJQsqaUBKTNV-1" vertex="1">
          <mxGeometry x="480" y="611" width="160" height="90" as="geometry">
            <mxRectangle x="230" y="140" width="160" height="26" as="alternateBounds" />
          </mxGeometry>
        </mxCell>
        <mxCell id="NPSRJjCiuasaxtM8R7SW-167" value="" style="line;html=1;strokeWidth=1;align=left;verticalAlign=middle;spacingTop=-1;spacingLeft=3;spacingRight=3;rotatable=0;labelPosition=right;points=[];portConstraint=eastwest;" parent="NPSRJjCiuasaxtM8R7SW-166" vertex="1">
          <mxGeometry y="26" width="160" height="8" as="geometry" />
        </mxCell>
        <mxCell id="NPSRJjCiuasaxtM8R7SW-168" value="+read" style="text;align=left;verticalAlign=top;spacingLeft=4;spacingRight=4;overflow=hidden;rotatable=0;points=[[0,0.5],[1,0.5]];portConstraint=eastwest;" parent="NPSRJjCiuasaxtM8R7SW-166" vertex="1">
          <mxGeometry y="34" width="160" height="26" as="geometry" />
        </mxCell>
        <mxCell id="NPSRJjCiuasaxtM8R7SW-169" value="" style="endArrow=block;endSize=16;endFill=0;html=1;exitX=0.5;exitY=0;exitDx=0;exitDy=0;" parent="WIyWlLk6GJQsqaUBKTNV-1" source="NPSRJjCiuasaxtM8R7SW-166" edge="1">
          <mxGeometry width="160" relative="1" as="geometry">
            <mxPoint x="387.5" y="591" as="sourcePoint" />
            <mxPoint x="180" y="551" as="targetPoint" />
          </mxGeometry>
        </mxCell>
        <mxCell id="NPSRJjCiuasaxtM8R7SW-170" value="EraseCompletedMissionsService" style="swimlane;fontStyle=0;align=center;verticalAlign=top;childLayout=stackLayout;horizontal=1;startSize=26;horizontalStack=0;resizeParent=1;resizeLast=0;collapsible=1;marginBottom=0;rounded=0;shadow=0;strokeWidth=1;" parent="WIyWlLk6GJQsqaUBKTNV-1" vertex="1">
          <mxGeometry x="2840" y="455.5" width="210" height="98" as="geometry">
            <mxRectangle x="2720" y="262" width="160" height="26" as="alternateBounds" />
          </mxGeometry>
        </mxCell>
        <mxCell id="NPSRJjCiuasaxtM8R7SW-172" value="" style="line;html=1;strokeWidth=1;align=left;verticalAlign=middle;spacingTop=-1;spacingLeft=3;spacingRight=3;rotatable=0;labelPosition=right;points=[];portConstraint=eastwest;" parent="NPSRJjCiuasaxtM8R7SW-170" vertex="1">
          <mxGeometry y="26" width="210" height="8" as="geometry" />
        </mxCell>
        <mxCell id="NPSRJjCiuasaxtM8R7SW-173" value="+eraseMission" style="text;align=left;verticalAlign=top;spacingLeft=4;spacingRight=4;overflow=hidden;rotatable=0;points=[[0,0.5],[1,0.5]];portConstraint=eastwest;" parent="NPSRJjCiuasaxtM8R7SW-170" vertex="1">
          <mxGeometry y="34" width="210" height="26" as="geometry" />
        </mxCell>
        <mxCell id="NPSRJjCiuasaxtM8R7SW-176" value="" style="endArrow=block;endSize=16;endFill=0;html=1;exitX=0.5;exitY=0;exitDx=0;exitDy=0;" parent="WIyWlLk6GJQsqaUBKTNV-1" source="NPSRJjCiuasaxtM8R7SW-170" edge="1">
          <mxGeometry width="160" relative="1" as="geometry">
            <mxPoint x="2725" y="453" as="sourcePoint" />
            <mxPoint x="1865" y="390" as="targetPoint" />
          </mxGeometry>
        </mxCell>
        <mxCell id="NPSRJjCiuasaxtM8R7SW-177" value="EraseCompletedMissionsRepo" style="swimlane;fontStyle=0;align=center;verticalAlign=top;childLayout=stackLayout;horizontal=1;startSize=26;horizontalStack=0;resizeParent=1;resizeLast=0;collapsible=1;marginBottom=0;rounded=0;shadow=0;strokeWidth=1;" parent="WIyWlLk6GJQsqaUBKTNV-1" vertex="1">
          <mxGeometry x="1345" y="611" width="170" height="90" as="geometry">
            <mxRectangle x="230" y="140" width="160" height="26" as="alternateBounds" />
          </mxGeometry>
        </mxCell>
        <mxCell id="NPSRJjCiuasaxtM8R7SW-178" value="" style="line;html=1;strokeWidth=1;align=left;verticalAlign=middle;spacingTop=-1;spacingLeft=3;spacingRight=3;rotatable=0;labelPosition=right;points=[];portConstraint=eastwest;" parent="NPSRJjCiuasaxtM8R7SW-177" vertex="1">
          <mxGeometry y="26" width="170" height="8" as="geometry" />
        </mxCell>
        <mxCell id="NPSRJjCiuasaxtM8R7SW-179" value="+write" style="text;align=left;verticalAlign=top;spacingLeft=4;spacingRight=4;overflow=hidden;rotatable=0;points=[[0,0.5],[1,0.5]];portConstraint=eastwest;" parent="NPSRJjCiuasaxtM8R7SW-177" vertex="1">
          <mxGeometry y="34" width="170" height="26" as="geometry" />
        </mxCell>
        <mxCell id="NPSRJjCiuasaxtM8R7SW-180" value="" style="endArrow=block;endSize=16;endFill=0;html=1;exitX=0.5;exitY=0;exitDx=0;exitDy=0;" parent="WIyWlLk6GJQsqaUBKTNV-1" source="NPSRJjCiuasaxtM8R7SW-177" edge="1">
          <mxGeometry width="160" relative="1" as="geometry">
            <mxPoint x="1350" y="601" as="sourcePoint" />
            <mxPoint x="820" y="551" as="targetPoint" />
          </mxGeometry>
        </mxCell>
        <mxCell id="NPSRJjCiuasaxtM8R7SW-182" value="" style="endArrow=block;endSize=16;endFill=0;html=1;exitX=0.5;exitY=0;exitDx=0;exitDy=0;entryX=0.5;entryY=1;entryDx=0;entryDy=0;" parent="WIyWlLk6GJQsqaUBKTNV-1" source="NPSRJjCiuasaxtM8R7SW-177" target="NPSRJjCiuasaxtM8R7SW-19" edge="1">
          <mxGeometry width="160" relative="1" as="geometry">
            <mxPoint x="1425" y="611" as="sourcePoint" />
            <mxPoint x="990" y="538" as="targetPoint" />
          </mxGeometry>
        </mxCell>
        <mxCell id="q4tkTc2q1mDDEgFrJ_Hx-0" value="" style="endArrow=block;endSize=16;endFill=0;html=1;entryX=0.5;entryY=1;entryDx=0;entryDy=0;exitX=0.5;exitY=0;exitDx=0;exitDy=0;" edge="1" parent="WIyWlLk6GJQsqaUBKTNV-1" source="NPSRJjCiuasaxtM8R7SW-170" target="NPSRJjCiuasaxtM8R7SW-116">
          <mxGeometry width="160" relative="1" as="geometry">
            <mxPoint x="2710" y="466.5" as="sourcePoint" />
            <mxPoint x="2710" y="393.5" as="targetPoint" />
          </mxGeometry>
        </mxCell>
        <mxCell id="q4tkTc2q1mDDEgFrJ_Hx-1" value="&lt;&lt;Core&gt;&gt;" style="swimlane;fontStyle=0;align=center;verticalAlign=top;childLayout=stackLayout;horizontal=1;startSize=26;horizontalStack=0;resizeParent=1;resizeLast=0;collapsible=1;marginBottom=0;rounded=0;shadow=0;strokeWidth=1;" vertex="1" parent="WIyWlLk6GJQsqaUBKTNV-1">
          <mxGeometry x="2340" y="1070" width="160" height="90" as="geometry">
            <mxRectangle x="230" y="140" width="160" height="26" as="alternateBounds" />
          </mxGeometry>
        </mxCell>
        <mxCell id="q4tkTc2q1mDDEgFrJ_Hx-2" value="dir: string" style="text;align=left;verticalAlign=top;spacingLeft=4;spacingRight=4;overflow=hidden;rotatable=0;points=[[0,0.5],[1,0.5]];portConstraint=eastwest;" vertex="1" parent="q4tkTc2q1mDDEgFrJ_Hx-1">
          <mxGeometry y="26" width="160" height="26" as="geometry" />
        </mxCell>
        <mxCell id="q4tkTc2q1mDDEgFrJ_Hx-3" value="" style="line;html=1;strokeWidth=1;align=left;verticalAlign=middle;spacingTop=-1;spacingLeft=3;spacingRight=3;rotatable=0;labelPosition=right;points=[];portConstraint=eastwest;" vertex="1" parent="q4tkTc2q1mDDEgFrJ_Hx-1">
          <mxGeometry y="52" width="160" height="8" as="geometry" />
        </mxCell>
        <mxCell id="q4tkTc2q1mDDEgFrJ_Hx-4" value="get,set" style="text;align=left;verticalAlign=top;spacingLeft=4;spacingRight=4;overflow=hidden;rotatable=0;points=[[0,0.5],[1,0.5]];portConstraint=eastwest;" vertex="1" parent="q4tkTc2q1mDDEgFrJ_Hx-1">
          <mxGeometry y="60" width="160" height="26" as="geometry" />
        </mxCell>
        <mxCell id="q4tkTc2q1mDDEgFrJ_Hx-9" value="Mission " style="swimlane;fontStyle=0;align=center;verticalAlign=top;childLayout=stackLayout;horizontal=1;startSize=26;horizontalStack=0;resizeParent=1;resizeLast=0;collapsible=1;marginBottom=0;rounded=0;shadow=0;strokeWidth=1;" vertex="1" parent="WIyWlLk6GJQsqaUBKTNV-1">
          <mxGeometry x="2340" y="1260" width="160" height="170" as="geometry">
            <mxRectangle x="230" y="140" width="160" height="26" as="alternateBounds" />
          </mxGeometry>
        </mxCell>
        <mxCell id="q4tkTc2q1mDDEgFrJ_Hx-10" value="Title: string" style="text;align=left;verticalAlign=top;spacingLeft=4;spacingRight=4;overflow=hidden;rotatable=0;points=[[0,0.5],[1,0.5]];portConstraint=eastwest;" vertex="1" parent="q4tkTc2q1mDDEgFrJ_Hx-9">
          <mxGeometry y="26" width="160" height="26" as="geometry" />
        </mxCell>
        <mxCell id="q4tkTc2q1mDDEgFrJ_Hx-11" value="Desciption: string" style="text;align=left;verticalAlign=top;spacingLeft=4;spacingRight=4;overflow=hidden;rotatable=0;points=[[0,0.5],[1,0.5]];portConstraint=eastwest;rounded=0;shadow=0;html=0;" vertex="1" parent="q4tkTc2q1mDDEgFrJ_Hx-9">
          <mxGeometry y="52" width="160" height="26" as="geometry" />
        </mxCell>
        <mxCell id="q4tkTc2q1mDDEgFrJ_Hx-12" value="DueTime: time" style="text;align=left;verticalAlign=top;spacingLeft=4;spacingRight=4;overflow=hidden;rotatable=0;points=[[0,0.5],[1,0.5]];portConstraint=eastwest;rounded=0;shadow=0;html=0;" vertex="1" parent="q4tkTc2q1mDDEgFrJ_Hx-9">
          <mxGeometry y="78" width="160" height="26" as="geometry" />
        </mxCell>
        <mxCell id="q4tkTc2q1mDDEgFrJ_Hx-13" value="Completed: bool" style="text;align=left;verticalAlign=top;spacingLeft=4;spacingRight=4;overflow=hidden;rotatable=0;points=[[0,0.5],[1,0.5]];portConstraint=eastwest;rounded=0;shadow=0;html=0;" vertex="1" parent="q4tkTc2q1mDDEgFrJ_Hx-9">
          <mxGeometry y="104" width="160" height="26" as="geometry" />
        </mxCell>
        <mxCell id="q4tkTc2q1mDDEgFrJ_Hx-14" value="" style="line;html=1;strokeWidth=1;align=left;verticalAlign=middle;spacingTop=-1;spacingLeft=3;spacingRight=3;rotatable=0;labelPosition=right;points=[];portConstraint=eastwest;" vertex="1" parent="q4tkTc2q1mDDEgFrJ_Hx-9">
          <mxGeometry y="130" width="160" height="10" as="geometry" />
        </mxCell>
        <mxCell id="q4tkTc2q1mDDEgFrJ_Hx-15" value="get,set" style="text;align=left;verticalAlign=top;spacingLeft=4;spacingRight=4;overflow=hidden;rotatable=0;points=[[0,0.5],[1,0.5]];portConstraint=eastwest;" vertex="1" parent="q4tkTc2q1mDDEgFrJ_Hx-9">
          <mxGeometry y="140" width="160" height="26" as="geometry" />
        </mxCell>
        <mxCell id="q4tkTc2q1mDDEgFrJ_Hx-16" value="" style="endArrow=block;endSize=16;endFill=0;html=1;exitX=0.5;exitY=0;exitDx=0;exitDy=0;entryX=0.5;entryY=1;entryDx=0;entryDy=0;" edge="1" parent="WIyWlLk6GJQsqaUBKTNV-1" source="q4tkTc2q1mDDEgFrJ_Hx-9" target="q4tkTc2q1mDDEgFrJ_Hx-1">
          <mxGeometry width="160" relative="1" as="geometry">
            <mxPoint x="2635" y="1243" as="sourcePoint" />
            <mxPoint x="2460" y="1213" as="targetPoint" />
          </mxGeometry>
        </mxCell>
        <mxCell id="q4tkTc2q1mDDEgFrJ_Hx-17" value="ReadMissionRepo" style="swimlane;fontStyle=0;align=center;verticalAlign=top;childLayout=stackLayout;horizontal=1;startSize=26;horizontalStack=0;resizeParent=1;resizeLast=0;collapsible=1;marginBottom=0;rounded=0;shadow=0;strokeWidth=1;" vertex="1" parent="WIyWlLk6GJQsqaUBKTNV-1">
          <mxGeometry x="110" y="611" width="160" height="90" as="geometry">
            <mxRectangle x="230" y="140" width="160" height="26" as="alternateBounds" />
          </mxGeometry>
        </mxCell>
        <mxCell id="q4tkTc2q1mDDEgFrJ_Hx-18" value="" style="line;html=1;strokeWidth=1;align=left;verticalAlign=middle;spacingTop=-1;spacingLeft=3;spacingRight=3;rotatable=0;labelPosition=right;points=[];portConstraint=eastwest;" vertex="1" parent="q4tkTc2q1mDDEgFrJ_Hx-17">
          <mxGeometry y="26" width="160" height="8" as="geometry" />
        </mxCell>
        <mxCell id="q4tkTc2q1mDDEgFrJ_Hx-19" value="+read" style="text;align=left;verticalAlign=top;spacingLeft=4;spacingRight=4;overflow=hidden;rotatable=0;points=[[0,0.5],[1,0.5]];portConstraint=eastwest;" vertex="1" parent="q4tkTc2q1mDDEgFrJ_Hx-17">
          <mxGeometry y="34" width="160" height="26" as="geometry" />
        </mxCell>
        <mxCell id="q4tkTc2q1mDDEgFrJ_Hx-20" value="" style="endArrow=block;endSize=16;endFill=0;html=1;exitX=0.5;exitY=0;exitDx=0;exitDy=0;" edge="1" parent="WIyWlLk6GJQsqaUBKTNV-1" source="q4tkTc2q1mDDEgFrJ_Hx-17">
          <mxGeometry width="160" relative="1" as="geometry">
            <mxPoint x="380" y="621" as="sourcePoint" />
            <mxPoint x="350" y="538" as="targetPoint" />
          </mxGeometry>
        </mxCell>
        <mxCell id="q4tkTc2q1mDDEgFrJ_Hx-21" value="" style="endArrow=block;endSize=16;endFill=0;html=1;exitX=0.5;exitY=0;exitDx=0;exitDy=0;" edge="1" parent="WIyWlLk6GJQsqaUBKTNV-1" source="q4tkTc2q1mDDEgFrJ_Hx-17">
          <mxGeometry width="160" relative="1" as="geometry">
            <mxPoint x="390" y="631" as="sourcePoint" />
            <mxPoint x="180" y="548" as="targetPoint" />
          </mxGeometry>
        </mxCell>
        <mxCell id="q4tkTc2q1mDDEgFrJ_Hx-22" value="AddMissionController" style="swimlane;fontStyle=0;align=center;verticalAlign=top;childLayout=stackLayout;horizontal=1;startSize=26;horizontalStack=0;resizeParent=1;resizeLast=0;collapsible=1;marginBottom=0;rounded=0;shadow=0;strokeWidth=1;" vertex="1" parent="WIyWlLk6GJQsqaUBKTNV-1">
          <mxGeometry x="440" y="1356.5" width="160" height="100" as="geometry">
            <mxRectangle x="230" y="140" width="160" height="26" as="alternateBounds" />
          </mxGeometry>
        </mxCell>
        <mxCell id="q4tkTc2q1mDDEgFrJ_Hx-23" value="" style="line;html=1;strokeWidth=1;align=left;verticalAlign=middle;spacingTop=-1;spacingLeft=3;spacingRight=3;rotatable=0;labelPosition=right;points=[];portConstraint=eastwest;" vertex="1" parent="q4tkTc2q1mDDEgFrJ_Hx-22">
          <mxGeometry y="26" width="160" height="8" as="geometry" />
        </mxCell>
        <mxCell id="q4tkTc2q1mDDEgFrJ_Hx-24" value="+addMission" style="text;align=left;verticalAlign=top;spacingLeft=4;spacingRight=4;overflow=hidden;rotatable=0;points=[[0,0.5],[1,0.5]];portConstraint=eastwest;" vertex="1" parent="q4tkTc2q1mDDEgFrJ_Hx-22">
          <mxGeometry y="34" width="160" height="40" as="geometry" />
        </mxCell>
        <mxCell id="q4tkTc2q1mDDEgFrJ_Hx-25" value="" style="endArrow=block;endSize=16;endFill=0;html=1;exitX=0.5;exitY=0;exitDx=0;exitDy=0;entryX=0.5;entryY=1;entryDx=0;entryDy=0;" edge="1" parent="WIyWlLk6GJQsqaUBKTNV-1" source="q4tkTc2q1mDDEgFrJ_Hx-22">
          <mxGeometry width="160" relative="1" as="geometry">
            <mxPoint x="981.44" y="1513.85" as="sourcePoint" />
            <mxPoint x="300" y="1290" as="targetPoint" />
          </mxGeometry>
        </mxCell>
        <mxCell id="q4tkTc2q1mDDEgFrJ_Hx-26" value="EraseMissionController" style="swimlane;fontStyle=0;align=center;verticalAlign=top;childLayout=stackLayout;horizontal=1;startSize=26;horizontalStack=0;resizeParent=1;resizeLast=0;collapsible=1;marginBottom=0;rounded=0;shadow=0;strokeWidth=1;" vertex="1" parent="WIyWlLk6GJQsqaUBKTNV-1">
          <mxGeometry x="650" y="1356.5" width="160" height="100" as="geometry">
            <mxRectangle x="230" y="140" width="160" height="26" as="alternateBounds" />
          </mxGeometry>
        </mxCell>
        <mxCell id="q4tkTc2q1mDDEgFrJ_Hx-27" value="" style="line;html=1;strokeWidth=1;align=left;verticalAlign=middle;spacingTop=-1;spacingLeft=3;spacingRight=3;rotatable=0;labelPosition=right;points=[];portConstraint=eastwest;" vertex="1" parent="q4tkTc2q1mDDEgFrJ_Hx-26">
          <mxGeometry y="26" width="160" height="8" as="geometry" />
        </mxCell>
        <mxCell id="q4tkTc2q1mDDEgFrJ_Hx-28" value="+eraseMission" style="text;align=left;verticalAlign=top;spacingLeft=4;spacingRight=4;overflow=hidden;rotatable=0;points=[[0,0.5],[1,0.5]];portConstraint=eastwest;" vertex="1" parent="q4tkTc2q1mDDEgFrJ_Hx-26">
          <mxGeometry y="34" width="160" height="40" as="geometry" />
        </mxCell>
        <mxCell id="q4tkTc2q1mDDEgFrJ_Hx-29" value="" style="endArrow=block;endSize=16;endFill=0;html=1;exitX=0.5;exitY=0;exitDx=0;exitDy=0;" edge="1" parent="WIyWlLk6GJQsqaUBKTNV-1" source="q4tkTc2q1mDDEgFrJ_Hx-26">
          <mxGeometry width="160" relative="1" as="geometry">
            <mxPoint x="520" y="1353" as="sourcePoint" />
            <mxPoint x="305" y="1290" as="targetPoint" />
          </mxGeometry>
        </mxCell>
        <mxCell id="q4tkTc2q1mDDEgFrJ_Hx-30" value="EndMissionController" style="swimlane;fontStyle=0;align=center;verticalAlign=top;childLayout=stackLayout;horizontal=1;startSize=26;horizontalStack=0;resizeParent=1;resizeLast=0;collapsible=1;marginBottom=0;rounded=0;shadow=0;strokeWidth=1;" vertex="1" parent="WIyWlLk6GJQsqaUBKTNV-1">
          <mxGeometry x="850" y="1356.5" width="160" height="100" as="geometry">
            <mxRectangle x="230" y="140" width="160" height="26" as="alternateBounds" />
          </mxGeometry>
        </mxCell>
        <mxCell id="q4tkTc2q1mDDEgFrJ_Hx-31" value="" style="line;html=1;strokeWidth=1;align=left;verticalAlign=middle;spacingTop=-1;spacingLeft=3;spacingRight=3;rotatable=0;labelPosition=right;points=[];portConstraint=eastwest;" vertex="1" parent="q4tkTc2q1mDDEgFrJ_Hx-30">
          <mxGeometry y="26" width="160" height="8" as="geometry" />
        </mxCell>
        <mxCell id="q4tkTc2q1mDDEgFrJ_Hx-32" value="+ updateMission" style="text;align=left;verticalAlign=top;spacingLeft=4;spacingRight=4;overflow=hidden;rotatable=0;points=[[0,0.5],[1,0.5]];portConstraint=eastwest;" vertex="1" parent="q4tkTc2q1mDDEgFrJ_Hx-30">
          <mxGeometry y="34" width="160" height="40" as="geometry" />
        </mxCell>
        <mxCell id="q4tkTc2q1mDDEgFrJ_Hx-33" value="" style="endArrow=block;endSize=16;endFill=0;html=1;exitX=0.5;exitY=0;exitDx=0;exitDy=0;" edge="1" parent="WIyWlLk6GJQsqaUBKTNV-1" source="q4tkTc2q1mDDEgFrJ_Hx-30">
          <mxGeometry width="160" relative="1" as="geometry">
            <mxPoint x="730" y="1353" as="sourcePoint" />
            <mxPoint x="305" y="1290" as="targetPoint" />
          </mxGeometry>
        </mxCell>
        <mxCell id="q4tkTc2q1mDDEgFrJ_Hx-34" value="GetAllMissionController" style="swimlane;fontStyle=0;align=center;verticalAlign=top;childLayout=stackLayout;horizontal=1;startSize=26;horizontalStack=0;resizeParent=1;resizeLast=0;collapsible=1;marginBottom=0;rounded=0;shadow=0;strokeWidth=1;" vertex="1" parent="WIyWlLk6GJQsqaUBKTNV-1">
          <mxGeometry x="1060" y="1356.5" width="160" height="100" as="geometry">
            <mxRectangle x="230" y="140" width="160" height="26" as="alternateBounds" />
          </mxGeometry>
        </mxCell>
        <mxCell id="q4tkTc2q1mDDEgFrJ_Hx-35" value="" style="line;html=1;strokeWidth=1;align=left;verticalAlign=middle;spacingTop=-1;spacingLeft=3;spacingRight=3;rotatable=0;labelPosition=right;points=[];portConstraint=eastwest;" vertex="1" parent="q4tkTc2q1mDDEgFrJ_Hx-34">
          <mxGeometry y="26" width="160" height="8" as="geometry" />
        </mxCell>
        <mxCell id="q4tkTc2q1mDDEgFrJ_Hx-36" value="+getMission" style="text;align=left;verticalAlign=top;spacingLeft=4;spacingRight=4;overflow=hidden;rotatable=0;points=[[0,0.5],[1,0.5]];portConstraint=eastwest;" vertex="1" parent="q4tkTc2q1mDDEgFrJ_Hx-34">
          <mxGeometry y="34" width="160" height="26" as="geometry" />
        </mxCell>
        <mxCell id="q4tkTc2q1mDDEgFrJ_Hx-37" value="" style="endArrow=block;endSize=16;endFill=0;html=1;exitX=0.5;exitY=0;exitDx=0;exitDy=0;" edge="1" parent="WIyWlLk6GJQsqaUBKTNV-1" source="q4tkTc2q1mDDEgFrJ_Hx-34">
          <mxGeometry width="160" relative="1" as="geometry">
            <mxPoint x="955" y="1353" as="sourcePoint" />
            <mxPoint x="305" y="1290" as="targetPoint" />
          </mxGeometry>
        </mxCell>
        <mxCell id="q4tkTc2q1mDDEgFrJ_Hx-38" value="EraseCompletedMissionsController" style="swimlane;fontStyle=0;align=center;verticalAlign=top;childLayout=stackLayout;horizontal=1;startSize=26;horizontalStack=0;resizeParent=1;resizeLast=0;collapsible=1;marginBottom=0;rounded=0;shadow=0;strokeWidth=1;" vertex="1" parent="WIyWlLk6GJQsqaUBKTNV-1">
          <mxGeometry x="1280" y="1355.5" width="210" height="98" as="geometry">
            <mxRectangle x="2720" y="262" width="160" height="26" as="alternateBounds" />
          </mxGeometry>
        </mxCell>
        <mxCell id="q4tkTc2q1mDDEgFrJ_Hx-39" value="" style="line;html=1;strokeWidth=1;align=left;verticalAlign=middle;spacingTop=-1;spacingLeft=3;spacingRight=3;rotatable=0;labelPosition=right;points=[];portConstraint=eastwest;" vertex="1" parent="q4tkTc2q1mDDEgFrJ_Hx-38">
          <mxGeometry y="26" width="210" height="8" as="geometry" />
        </mxCell>
        <mxCell id="q4tkTc2q1mDDEgFrJ_Hx-40" value="+eraseMission" style="text;align=left;verticalAlign=top;spacingLeft=4;spacingRight=4;overflow=hidden;rotatable=0;points=[[0,0.5],[1,0.5]];portConstraint=eastwest;" vertex="1" parent="q4tkTc2q1mDDEgFrJ_Hx-38">
          <mxGeometry y="34" width="210" height="26" as="geometry" />
        </mxCell>
        <mxCell id="q4tkTc2q1mDDEgFrJ_Hx-41" value="" style="endArrow=block;endSize=16;endFill=0;html=1;exitX=0.5;exitY=0;exitDx=0;exitDy=0;" edge="1" parent="WIyWlLk6GJQsqaUBKTNV-1" source="q4tkTc2q1mDDEgFrJ_Hx-38">
          <mxGeometry width="160" relative="1" as="geometry">
            <mxPoint x="1165" y="1353" as="sourcePoint" />
            <mxPoint x="305" y="1290" as="targetPoint" />
          </mxGeometry>
        </mxCell>
      </root>
    </mxGraphModel>
  </diagram>
</mxfile>
